<svg width="142" height="40" viewBox="0 0 142 40" fill="none" xmlns="http://www.w3.org/2000/svg">
<path d="M53.462 25.18C51.734 25.18 50.384 24.76 49.412 23.92C48.44 23.068 47.924 21.862 47.864 20.302C47.852 19.954 47.846 19.402 47.846 18.646C47.846 17.89 47.852 17.338 47.864 16.99C47.924 15.466 48.446 14.29 49.43 13.462C50.426 12.634 51.77 12.22 53.462 12.22C54.602 12.22 55.592 12.406 56.432 12.778C57.284 13.15 57.932 13.624 58.376 14.2C58.832 14.776 59.072 15.37 59.096 15.982C59.096 16.09 59.054 16.18 58.97 16.252C58.898 16.324 58.808 16.36 58.7 16.36H56.072C55.952 16.36 55.856 16.342 55.784 16.306C55.712 16.27 55.652 16.204 55.604 16.108C55.448 15.76 55.202 15.46 54.866 15.208C54.53 14.944 54.062 14.812 53.462 14.812C52.034 14.812 51.284 15.568 51.212 17.08C51.2 17.416 51.194 17.938 51.194 18.646C51.194 19.342 51.2 19.864 51.212 20.212C51.284 21.796 52.052 22.588 53.516 22.588C54.224 22.588 54.788 22.408 55.208 22.048C55.64 21.676 55.856 21.112 55.856 20.356V20.014H54.164C54.032 20.014 53.924 19.972 53.84 19.888C53.756 19.792 53.714 19.678 53.714 19.546V18.214C53.714 18.082 53.756 17.974 53.84 17.89C53.924 17.794 54.032 17.746 54.164 17.746H58.7C58.832 17.746 58.94 17.794 59.024 17.89C59.108 17.974 59.15 18.082 59.15 18.214V20.266C59.15 21.286 58.916 22.168 58.448 22.912C57.98 23.644 57.314 24.208 56.45 24.604C55.598 24.988 54.602 25.18 53.462 25.18ZM65.4451 25.18C63.9571 25.18 62.8111 24.826 62.0071 24.118C61.2031 23.41 60.7651 22.414 60.6931 21.13C60.6811 20.974 60.6751 20.704 60.6751 20.32C60.6751 19.936 60.6811 19.666 60.6931 19.51C60.7651 18.238 61.2151 17.248 62.0431 16.54C62.8711 15.82 64.0051 15.46 65.4451 15.46C66.8971 15.46 68.0371 15.82 68.8651 16.54C69.6931 17.248 70.1431 18.238 70.2151 19.51C70.2271 19.666 70.2331 19.936 70.2331 20.32C70.2331 20.704 70.2271 20.974 70.2151 21.13C70.1431 22.414 69.7051 23.41 68.9011 24.118C68.0971 24.826 66.9451 25.18 65.4451 25.18ZM65.4451 22.984C65.9731 22.984 66.3631 22.828 66.6151 22.516C66.8671 22.192 67.0111 21.7 67.0471 21.04C67.0591 20.92 67.0651 20.68 67.0651 20.32C67.0651 19.96 67.0591 19.72 67.0471 19.6C67.0111 18.952 66.8611 18.466 66.5971 18.142C66.3451 17.818 65.9611 17.656 65.4451 17.656C64.4491 17.656 63.9211 18.304 63.8611 19.6L63.8431 20.32L63.8611 21.04C63.8851 21.7 64.0231 22.192 64.2751 22.516C64.5391 22.828 64.9291 22.984 65.4451 22.984Z" fill="black"/>
<path d="M77.385 25.18C75.669 25.18 74.325 24.766 73.353 23.938C72.393 23.098 71.883 21.886 71.823 20.302C71.811 19.978 71.805 19.45 71.805 18.718C71.805 17.974 71.811 17.434 71.823 17.098C71.883 15.538 72.405 14.338 73.389 13.498C74.373 12.646 75.705 12.22 77.385 12.22C78.441 12.22 79.389 12.4 80.229 12.76C81.069 13.108 81.729 13.612 82.209 14.272C82.701 14.92 82.953 15.682 82.965 16.558V16.594C82.965 16.69 82.923 16.774 82.839 16.846C82.767 16.906 82.683 16.936 82.587 16.936H80.157C80.001 16.936 79.881 16.906 79.797 16.846C79.713 16.774 79.641 16.648 79.581 16.468C79.413 15.856 79.149 15.43 78.789 15.19C78.429 14.938 77.955 14.812 77.367 14.812C75.951 14.812 75.219 15.604 75.171 17.188C75.159 17.512 75.153 18.01 75.153 18.682C75.153 19.354 75.159 19.864 75.171 20.212C75.219 21.796 75.951 22.588 77.367 22.588C77.955 22.588 78.435 22.462 78.807 22.21C79.179 21.946 79.437 21.52 79.581 20.932C79.629 20.752 79.695 20.632 79.779 20.572C79.863 20.5 79.989 20.464 80.157 20.464H82.587C82.695 20.464 82.785 20.5 82.857 20.572C82.941 20.644 82.977 20.734 82.965 20.842C82.953 21.718 82.701 22.486 82.209 23.146C81.729 23.794 81.069 24.298 80.229 24.658C79.389 25.006 78.441 25.18 77.385 25.18ZM89.0877 25.18C87.5997 25.18 86.4537 24.826 85.6497 24.118C84.8457 23.41 84.4077 22.414 84.3357 21.13C84.3237 20.974 84.3177 20.704 84.3177 20.32C84.3177 19.936 84.3237 19.666 84.3357 19.51C84.4077 18.238 84.8577 17.248 85.6857 16.54C86.5137 15.82 87.6477 15.46 89.0877 15.46C90.5397 15.46 91.6797 15.82 92.5077 16.54C93.3357 17.248 93.7857 18.238 93.8577 19.51C93.8697 19.666 93.8757 19.936 93.8757 20.32C93.8757 20.704 93.8697 20.974 93.8577 21.13C93.7857 22.414 93.3477 23.41 92.5437 24.118C91.7397 24.826 90.5877 25.18 89.0877 25.18ZM89.0877 22.984C89.6157 22.984 90.0057 22.828 90.2577 22.516C90.5097 22.192 90.6537 21.7 90.6897 21.04C90.7017 20.92 90.7077 20.68 90.7077 20.32C90.7077 19.96 90.7017 19.72 90.6897 19.6C90.6537 18.952 90.5037 18.466 90.2397 18.142C89.9877 17.818 89.6037 17.656 89.0877 17.656C88.0917 17.656 87.5637 18.304 87.5037 19.6L87.4857 20.32L87.5037 21.04C87.5277 21.7 87.6657 22.192 87.9177 22.516C88.1817 22.828 88.5717 22.984 89.0877 22.984ZM96.1136 25C95.9816 25 95.8736 24.958 95.7896 24.874C95.7056 24.79 95.6636 24.682 95.6636 24.55V16.09C95.6636 15.958 95.7056 15.85 95.7896 15.766C95.8736 15.682 95.9816 15.64 96.1136 15.64H98.1836C98.3156 15.64 98.4236 15.688 98.5076 15.784C98.6036 15.868 98.6516 15.97 98.6516 16.09V16.81C99.3116 16.03 100.2 15.64 101.316 15.64H102.108C102.24 15.64 102.348 15.682 102.432 15.766C102.516 15.85 102.558 15.958 102.558 16.09V17.944C102.558 18.064 102.516 18.172 102.432 18.268C102.348 18.352 102.24 18.394 102.108 18.394H100.362C99.8696 18.394 99.4856 18.532 99.2096 18.808C98.9456 19.072 98.8136 19.45 98.8136 19.942V24.55C98.8136 24.682 98.7656 24.79 98.6696 24.874C98.5856 24.958 98.4776 25 98.3456 25H96.1136ZM108.178 25.18C106.69 25.18 105.544 24.826 104.74 24.118C103.936 23.41 103.498 22.414 103.426 21.13C103.414 20.974 103.408 20.704 103.408 20.32C103.408 19.936 103.414 19.666 103.426 19.51C103.498 18.238 103.948 17.248 104.776 16.54C105.604 15.82 106.738 15.46 108.178 15.46C109.63 15.46 110.77 15.82 111.598 16.54C112.426 17.248 112.876 18.238 112.948 19.51C112.96 19.666 112.966 19.936 112.966 20.32C112.966 20.704 112.96 20.974 112.948 21.13C112.876 22.414 112.438 23.41 111.634 24.118C110.83 24.826 109.678 25.18 108.178 25.18ZM108.178 22.984C108.706 22.984 109.096 22.828 109.348 22.516C109.6 22.192 109.744 21.7 109.78 21.04C109.792 20.92 109.798 20.68 109.798 20.32C109.798 19.96 109.792 19.72 109.78 19.6C109.744 18.952 109.594 18.466 109.33 18.142C109.078 17.818 108.694 17.656 108.178 17.656C107.182 17.656 106.654 18.304 106.594 19.6L106.576 20.32L106.594 21.04C106.618 21.7 106.756 22.192 107.008 22.516C107.272 22.828 107.662 22.984 108.178 22.984ZM115.203 25C115.071 25 114.963 24.958 114.879 24.874C114.795 24.79 114.753 24.682 114.753 24.55V16.09C114.753 15.958 114.795 15.85 114.879 15.766C114.963 15.682 115.071 15.64 115.203 15.64H117.273C117.405 15.64 117.513 15.682 117.597 15.766C117.693 15.85 117.741 15.958 117.741 16.09V16.774C118.065 16.378 118.479 16.06 118.983 15.82C119.499 15.58 120.081 15.46 120.729 15.46C121.785 15.46 122.643 15.82 123.303 16.54C123.963 17.248 124.293 18.244 124.293 19.528V24.55C124.293 24.67 124.251 24.778 124.167 24.874C124.083 24.958 123.975 25 123.843 25H121.575C121.455 25 121.347 24.958 121.251 24.874C121.167 24.778 121.125 24.67 121.125 24.55V19.636C121.125 19.072 120.987 18.64 120.711 18.34C120.435 18.028 120.039 17.872 119.523 17.872C119.019 17.872 118.623 18.028 118.335 18.34C118.047 18.64 117.903 19.072 117.903 19.636V24.55C117.903 24.67 117.861 24.778 117.777 24.874C117.693 24.958 117.585 25 117.453 25H115.203ZM129.128 25.18C128.492 25.18 127.91 25.06 127.382 24.82C126.866 24.568 126.458 24.232 126.158 23.812C125.87 23.38 125.726 22.906 125.726 22.39C125.726 21.562 126.062 20.896 126.734 20.392C127.418 19.888 128.354 19.54 129.542 19.348L131.792 19.006V18.754C131.792 18.298 131.696 17.962 131.504 17.746C131.312 17.53 130.988 17.422 130.532 17.422C130.256 17.422 130.028 17.47 129.848 17.566C129.668 17.662 129.482 17.794 129.29 17.962C129.122 18.106 128.996 18.202 128.912 18.25C128.876 18.346 128.81 18.394 128.714 18.394H126.752C126.632 18.394 126.53 18.358 126.446 18.286C126.374 18.202 126.344 18.106 126.356 17.998C126.368 17.674 126.524 17.314 126.824 16.918C127.136 16.522 127.604 16.18 128.228 15.892C128.864 15.604 129.644 15.46 130.568 15.46C132.044 15.46 133.136 15.79 133.844 16.45C134.552 17.098 134.906 17.974 134.906 19.078V24.55C134.906 24.67 134.864 24.778 134.78 24.874C134.696 24.958 134.588 25 134.456 25H132.368C132.248 25 132.14 24.958 132.044 24.874C131.96 24.778 131.918 24.67 131.918 24.55V23.92C131.654 24.292 131.282 24.598 130.802 24.838C130.334 25.066 129.776 25.18 129.128 25.18ZM129.974 23.128C130.526 23.128 130.97 22.948 131.306 22.588C131.654 22.228 131.828 21.7 131.828 21.004V20.752L130.298 21.022C129.218 21.214 128.678 21.592 128.678 22.156C128.678 22.456 128.804 22.696 129.056 22.876C129.308 23.044 129.614 23.128 129.974 23.128Z" fill="#EC5863"/>
<path d="M14.2208 4.98869C15.6455 4.48917 17.2113 5.16285 17.7174 6.49273C18.1048 7.51091 17.7581 8.61769 16.9363 9.30529L17.3804 10.5163L18.0869 11.3316C18.2482 11.5182 18.4928 11.6074 18.738 11.5772C19.3991 11.4959 20.056 11.4928 20.6993 11.5604C20.9173 11.5836 21.1342 11.5116 21.2907 11.3595L21.8005 10.8661L22.1764 9.77185C21.8566 9.33293 21.7483 8.75165 21.9379 8.19933C22.2597 7.26306 23.3107 6.77916 24.2454 7.16256C25.0506 7.49245 25.4887 8.38808 25.253 9.22153C25.1032 9.75239 24.7241 10.15 24.2576 10.3468L23.8415 11.5594L23.9364 12.2276C23.969 12.4573 24.1054 12.6579 24.3047 12.7782C24.9746 13.1847 25.5899 13.6817 26.1301 14.2562C26.3116 14.4496 26.5824 14.5325 26.8427 14.4801L28.1825 14.2111L29.6961 13.3717C29.7039 12.6274 30.1017 11.9079 30.8019 11.5195C31.8606 10.9326 33.2014 11.327 33.7655 12.4024C34.2748 13.3725 33.9551 14.592 33.0327 15.1892C32.3124 15.6547 31.4335 15.6377 30.7551 15.2402L29.2325 16.084L28.3823 16.9871C28.1541 17.2294 28.0728 17.572 28.1599 17.8928C28.1604 17.8947 28.1607 17.896 28.1612 17.8979C28.3102 18.4507 28.4006 19.0063 28.438 19.557C28.4597 19.8851 28.6454 20.1803 28.9362 20.3371L30.0459 20.9353L32.2454 21.35C32.6331 21.0124 33.1672 20.8491 33.713 20.9515C34.6915 21.1363 35.3215 22.1048 35.0708 23.0797C34.8551 23.9145 34.0325 24.4703 33.1723 24.3609C32.5857 24.2863 32.1121 23.9338 31.8578 23.4598L29.6441 23.0427L28.2787 23.2089C28.027 23.24 27.8072 23.3975 27.7046 23.628C27.296 24.5379 26.7323 25.3748 26.0363 26.0973C25.8634 26.2768 25.7985 26.5338 25.8613 26.7744L26.2006 28.0843L27.0384 29.3942C27.9599 29.2563 28.9188 29.6536 29.4508 30.4856C30.1659 31.6034 29.8415 33.0834 28.7285 33.8046C27.6161 34.5257 26.1023 34.2119 25.3732 33.1081C24.8627 32.3353 24.8571 31.382 25.2709 30.6257L24.3815 29.2354L23.288 28.3384C23.1261 28.2048 22.9054 28.1695 22.7078 28.2397C22.4885 28.3178 22.2649 28.3876 22.0362 28.4485C20.7935 28.7796 19.5406 28.8223 18.3489 28.6198C18.1742 28.5905 17.9955 28.6402 17.8619 28.7557L17.2751 29.2642L16.8386 30.336C17.1339 30.7923 17.2093 31.3783 16.9894 31.919C16.6156 32.8366 15.5392 33.2616 14.6276 32.8274C13.8425 32.4535 13.4548 31.535 13.7366 30.7157C13.916 30.1939 14.3158 29.8178 14.7928 29.6473L15.2763 28.4594L15.1865 27.4161C14.3146 26.8717 13.5388 26.1731 12.9044 25.3474L11.4132 25.4942L10.0175 26.1823C10.0266 27.1158 9.54482 28.0039 8.69918 28.4338C7.50426 29.0407 6.03648 28.5034 5.42117 27.2331C4.80604 25.9634 5.27521 24.4421 6.47012 23.8352C7.36433 23.3809 8.41073 23.5673 9.13879 24.2224L10.455 23.573L11.3685 22.5962C11.4282 22.5323 11.4503 22.4424 11.4276 22.3584L11.4273 22.3571C11.0051 20.7902 11.0482 19.2063 11.4718 17.7506C11.4945 17.6707 11.4774 17.5846 11.4235 17.521L10.6355 16.5826L8.93758 15.6942C8.46992 15.8994 7.9155 15.8988 7.42793 15.6434C6.54711 15.182 6.22972 14.0748 6.75476 13.2157C7.2157 12.4624 8.19747 12.1764 8.99469 12.5626C9.51073 12.8124 9.84362 13.2797 9.94203 13.7966L11.6399 14.6849L12.8484 14.7983C12.9323 14.8064 13.0141 14.7711 13.0674 14.7061C13.6155 14.0312 14.268 13.4354 15.0092 12.9467C15.2126 12.8119 15.339 12.5886 15.3422 12.3453L15.3547 11.2518L14.881 9.96133C13.8541 9.88759 12.9251 9.26768 12.557 8.30058C12.0509 6.97071 12.7959 5.48757 14.2208 4.98869Z" fill="#EC5863"/>
<path d="M25.9898 18.4765C25.0729 15.0737 21.5559 13.0542 18.1342 13.966C14.7125 14.8778 12.6819 18.3756 13.5988 21.7785C14.5156 25.1813 18.0327 27.2008 21.4543 26.289C24.876 25.3772 26.9066 21.8794 25.9898 18.4765Z" fill="#F58A97"/>
<path d="M20.9484 24.4109C17.8476 25.2372 14.6687 23.6565 13.4173 20.8204C13.4527 21.1391 13.5128 21.4592 13.5988 21.7785C14.5156 25.1814 18.0326 27.2008 21.4543 26.289C24.8761 25.3771 26.9066 21.8795 25.9898 18.4765C25.9037 18.1573 25.7949 17.8502 25.6653 17.5566C26.0073 20.635 24.049 23.5847 20.9484 24.4109Z" fill="#F07281"/>
<path d="M11.324 33.496C11.0629 32.5269 10.0614 31.9518 9.08698 32.2115C8.11258 32.4711 7.53433 33.4672 7.79542 34.4362C8.05651 35.4053 9.05807 35.9804 10.0325 35.7207C11.0069 35.4611 11.5851 34.465 11.324 33.496Z" fill="#EB5569"/>
<path d="M34.1106 27.9379C33.9381 27.2979 33.2766 26.918 32.633 27.0895C31.9894 27.261 31.6074 27.9189 31.7799 28.559C31.9523 29.1991 32.6139 29.5789 33.2575 29.4074C33.9011 29.2359 34.283 28.578 34.1106 27.9379Z" fill="#EB5569"/>
<path d="M30.8429 6.00213C30.5889 5.05936 29.6145 4.49988 28.6665 4.75249C27.7185 5.0051 27.1559 5.97416 27.4099 6.91693C27.6639 7.8597 28.6383 8.41918 29.5863 8.16656C30.5343 7.91395 31.0969 6.9449 30.8429 6.00213Z" fill="#EB5569"/>
<path d="M20.1955 22.0477C19.9587 21.1687 19.0502 20.6471 18.1664 20.8826C17.2826 21.1181 16.7581 22.0216 16.9949 22.9005C17.2318 23.7795 18.1402 24.3011 19.024 24.0656C19.9078 23.8301 20.4323 22.9266 20.1955 22.0477Z" fill="#EB5569"/>
<path d="M24.3108 19.5818C24.1496 18.9835 23.5313 18.6285 22.9297 18.7888C22.3281 18.9491 21.9711 19.564 22.1323 20.1623C22.2935 20.7606 22.9119 21.1156 23.5134 20.9553C24.115 20.795 24.472 20.18 24.3108 19.5818Z" fill="#EB5569"/>
<path d="M19.9578 17.0961C19.8224 16.5937 19.3032 16.2956 18.7981 16.4302C18.2929 16.5648 17.9931 17.0812 18.1285 17.5835C18.2639 18.0859 18.7831 18.384 19.2882 18.2494C19.7934 18.1148 20.0932 17.5984 19.9578 17.0961Z" fill="#EB5569"/>
</svg>
